ply
format ascii 1.0
comment Created by Blender 2.76 (sub 0) - www.blender.org, source file: ''
element vertex 192
property float x
property float y
property float z
property float nx
property float ny
property float nz
property float s
property float t
element face 92
property list uchar uint vertex_indices
end_header
0.000000 0.040000 -0.115000 0.098017 0.995185 0.000000 0.491401 0.093119
0.000000 0.040000 0.115000 0.098017 0.995185 0.000000 0.484602 0.918288
0.007804 0.039231 0.115000 0.098017 0.995185 0.000000 0.464226 0.917922
0.007804 0.039231 -0.115000 0.098017 0.995185 0.000000 0.472405 0.092752
0.007804 0.039231 -0.115000 0.290285 0.956940 0.000000 0.472405 0.092752
0.007804 0.039231 0.115000 0.290285 0.956940 0.000000 0.464226 0.917922
0.015307 0.036955 0.115000 0.290285 0.956940 0.000000 0.444028 0.917494
0.015307 0.036955 -0.115000 0.290285 0.956940 0.000000 0.453272 0.092325
0.015307 0.036955 -0.115000 0.471397 0.881921 0.000000 0.453272 0.092325
0.015307 0.036955 0.115000 0.471397 0.881921 0.000000 0.444028 0.917494
0.022223 0.033259 0.115000 0.471397 0.881921 0.000000 0.424024 0.917023
0.022223 0.033259 -0.115000 0.471397 0.881921 0.000000 0.433978 0.091854
0.022223 0.033259 -0.115000 0.634393 0.773011 0.000000 0.433978 0.091854
0.022223 0.033259 0.115000 0.634393 0.773011 0.000000 0.424024 0.917023
0.028284 0.028284 0.115000 0.634393 0.773011 0.000000 0.404221 0.916527
0.028284 0.028284 -0.115000 0.634393 0.773011 0.000000 0.414505 0.091358
0.028284 0.028284 -0.115000 0.773010 0.634393 0.000000 0.414505 0.091358
0.028284 0.028284 0.115000 0.773010 0.634393 0.000000 0.404221 0.916527
0.033259 0.022223 0.115000 0.773010 0.634393 0.000000 0.384618 0.916023
0.033259 0.022223 -0.115000 0.773010 0.634393 0.000000 0.394839 0.090855
0.033259 0.022223 -0.115000 0.881921 0.471396 0.000000 0.394839 0.090855
0.033259 0.022223 0.115000 0.881921 0.471396 0.000000 0.384618 0.916023
0.036955 0.015307 0.115000 0.881921 0.471396 0.000000 0.365204 0.915533
0.036955 0.015307 -0.115000 0.881921 0.471396 0.000000 0.374972 0.090364
0.036955 0.015307 -0.115000 0.956940 0.290285 0.000000 0.374972 0.090364
0.036955 0.015307 0.115000 0.956940 0.290285 0.000000 0.365204 0.915533
0.039231 0.007804 0.115000 0.956940 0.290285 0.000000 0.345963 0.915075
0.039231 0.007804 -0.115000 0.956940 0.290285 0.000000 0.354906 0.089906
0.039231 0.007804 -0.115000 0.995185 0.098017 0.000000 0.354906 0.089906
0.039231 0.007804 0.115000 0.995185 0.098017 0.000000 0.345963 0.915075
0.040000 0.000000 0.115000 0.995185 0.098017 0.000000 0.326877 0.914665
0.040000 0.000000 -0.115000 0.995185 0.098017 0.000000 0.334649 0.089496
0.040000 0.000000 -0.115000 0.995185 -0.098017 0.000000 0.334649 0.089496
0.040000 0.000000 0.115000 0.995185 -0.098017 0.000000 0.326877 0.914665
0.039231 -0.007804 0.115000 0.995185 -0.098017 0.000000 0.307919 0.914320
0.039231 -0.007804 -0.115000 0.995185 -0.098017 0.000000 0.314221 0.089151
0.039231 -0.007804 -0.115000 0.956940 -0.290284 0.000000 0.314221 0.089151
0.039231 -0.007804 0.115000 0.956940 -0.290284 0.000000 0.307919 0.914320
0.036955 -0.015307 0.115000 0.956940 -0.290284 0.000000 0.289063 0.914054
0.036955 -0.015307 -0.115000 0.956940 -0.290284 0.000000 0.293650 0.088885
0.036955 -0.015307 -0.115000 0.881921 -0.471397 0.000000 0.293650 0.088885
0.036955 -0.015307 0.115000 0.881921 -0.471397 0.000000 0.289063 0.914054
0.033259 -0.022223 0.115000 0.881921 -0.471397 0.000000 0.270279 0.913876
0.033259 -0.022223 -0.115000 0.881921 -0.471397 0.000000 0.272972 0.088706
0.033259 -0.022223 -0.115000 0.773010 -0.634393 0.000000 0.272972 0.088706
0.033259 -0.022223 0.115000 0.773010 -0.634393 0.000000 0.270279 0.913876
0.028284 -0.028284 0.115000 0.773010 -0.634393 0.000000 0.251537 0.913793
0.028284 -0.028284 -0.115000 0.773010 -0.634393 0.000000 0.252230 0.088624
0.028284 -0.028284 -0.115000 0.634394 -0.773010 0.000000 0.252230 0.088624
0.028284 -0.028284 0.115000 0.634394 -0.773010 0.000000 0.251537 0.913793
0.022223 -0.033259 0.115000 0.634394 -0.773010 0.000000 0.232806 0.913809
0.022223 -0.033259 -0.115000 0.634394 -0.773010 0.000000 0.231472 0.088640
0.022223 -0.033259 -0.115000 0.471397 -0.881921 0.000000 0.231472 0.088640
0.022223 -0.033259 0.115000 0.471397 -0.881921 0.000000 0.232806 0.913809
0.015307 -0.036955 0.115000 0.471397 -0.881921 0.000000 0.214055 0.913922
0.015307 -0.036955 -0.115000 0.471397 -0.881921 0.000000 0.210745 0.088753
0.015307 -0.036955 -0.115000 0.290284 -0.956940 0.000000 0.210745 0.088753
0.015307 -0.036955 0.115000 0.290284 -0.956940 0.000000 0.214055 0.913922
0.007804 -0.039231 0.115000 0.290284 -0.956940 0.000000 0.195251 0.914129
0.007804 -0.039231 -0.115000 0.290284 -0.956940 0.000000 0.190097 0.088960
0.007804 -0.039231 -0.115000 0.098017 -0.995185 0.000000 0.820166 0.088960
0.007804 -0.039231 0.115000 0.098017 -0.995185 0.000000 0.825320 0.914129
-0.000000 -0.040000 0.115000 0.098017 -0.995185 0.000000 0.806435 0.914422
-0.000000 -0.040000 -0.115000 0.098017 -0.995185 0.000000 0.799636 0.089253
-0.000000 -0.040000 -0.115000 -0.098018 -0.995185 0.000000 0.799636 0.089253
-0.000000 -0.040000 0.115000 -0.098018 -0.995185 0.000000 0.806435 0.914422
-0.007804 -0.039231 0.115000 -0.098018 -0.995185 0.000000 0.787439 0.914789
-0.007804 -0.039231 -0.115000 -0.098018 -0.995185 0.000000 0.779260 0.089620
-0.007804 -0.039231 -0.115000 -0.290285 -0.956940 0.000000 0.779260 0.089620
-0.007804 -0.039231 0.115000 -0.290285 -0.956940 0.000000 0.787439 0.914789
-0.015307 -0.036955 0.115000 -0.290285 -0.956940 0.000000 0.768306 0.915216
-0.015307 -0.036955 -0.115000 -0.290285 -0.956940 0.000000 0.759062 0.090046
-0.015307 -0.036955 -0.115000 -0.471397 -0.881921 0.000000 0.759062 0.090046
-0.015307 -0.036955 0.115000 -0.471397 -0.881921 0.000000 0.768306 0.915216
-0.022223 -0.033259 0.115000 -0.471397 -0.881921 0.000000 0.749013 0.915687
-0.022223 -0.033259 -0.115000 -0.471397 -0.881921 0.000000 0.739059 0.090517
-0.022223 -0.033259 -0.115000 -0.634394 -0.773010 0.000000 0.739059 0.090517
-0.022223 -0.033259 0.115000 -0.634394 -0.773010 0.000000 0.749013 0.915687
-0.028284 -0.028284 0.115000 -0.634394 -0.773010 0.000000 0.729540 0.916183
-0.028284 -0.028284 -0.115000 -0.634394 -0.773010 0.000000 0.719256 0.091014
-0.028284 -0.028284 -0.115000 -0.773011 -0.634393 0.000000 0.719256 0.091014
-0.028284 -0.028284 0.115000 -0.773011 -0.634393 0.000000 0.729540 0.916183
-0.033259 -0.022223 0.115000 -0.773011 -0.634393 0.000000 0.709874 0.916687
-0.033259 -0.022223 -0.115000 -0.773011 -0.634393 0.000000 0.699652 0.091517
-0.033259 -0.022223 -0.115000 -0.881922 -0.471396 0.000000 0.699652 0.091517
-0.033259 -0.022223 0.115000 -0.881922 -0.471396 0.000000 0.709874 0.916687
-0.036955 -0.015307 0.115000 -0.881922 -0.471396 0.000000 0.690007 0.917177
-0.036955 -0.015307 -0.115000 -0.881922 -0.471396 0.000000 0.680238 0.092008
-0.036955 -0.015307 -0.115000 -0.956941 -0.290284 0.000000 0.680238 0.092008
-0.036955 -0.015307 0.115000 -0.956941 -0.290284 0.000000 0.690007 0.917177
-0.039231 -0.007804 0.115000 -0.956941 -0.290284 0.000000 0.669940 0.917636
-0.039231 -0.007804 -0.115000 -0.956941 -0.290284 0.000000 0.660998 0.092466
-0.039231 -0.007804 -0.115000 -0.995185 -0.098016 0.000000 0.660998 0.092466
-0.039231 -0.007804 0.115000 -0.995185 -0.098016 0.000000 0.669940 0.917636
-0.040000 0.000000 0.115000 -0.995185 -0.098016 0.000000 0.649684 0.918046
-0.040000 0.000000 -0.115000 -0.995185 -0.098016 0.000000 0.641911 0.092876
-0.040000 0.000000 -0.115000 -0.995185 0.098018 0.000000 0.641911 0.092876
-0.040000 0.000000 0.115000 -0.995185 0.098018 0.000000 0.649684 0.918046
-0.039231 0.007804 0.115000 -0.995185 0.098018 0.000000 0.629256 0.918390
-0.039231 0.007804 -0.115000 -0.995185 0.098018 0.000000 0.622953 0.093221
-0.039231 0.007804 -0.115000 -0.956940 0.290286 0.000000 0.622953 0.093221
-0.039231 0.007804 0.115000 -0.956940 0.290286 0.000000 0.629256 0.918390
-0.036955 0.015307 0.115000 -0.956940 0.290286 0.000000 0.608684 0.918657
-0.036955 0.015307 -0.115000 -0.956940 0.290286 0.000000 0.604097 0.093487
-0.036955 0.015307 -0.115000 -0.881921 0.471398 0.000000 0.604097 0.093487
-0.036955 0.015307 0.115000 -0.881921 0.471398 0.000000 0.608684 0.918657
-0.033259 0.022223 0.115000 -0.881921 0.471398 0.000000 0.588006 0.918835
-0.033259 0.022223 -0.115000 -0.881921 0.471398 0.000000 0.585314 0.093665
-0.033259 0.022223 -0.115000 -0.773010 0.634394 0.000000 0.585314 0.093665
-0.033259 0.022223 0.115000 -0.773010 0.634394 0.000000 0.588006 0.918835
-0.028284 0.028284 0.115000 -0.773010 0.634394 0.000000 0.567264 0.918917
-0.028284 0.028284 -0.115000 -0.773010 0.634394 0.000000 0.566572 0.093748
-0.028284 0.028284 -0.115000 -0.634392 0.773011 0.000000 0.566572 0.093748
-0.028284 0.028284 0.115000 -0.634392 0.773011 0.000000 0.567264 0.918917
-0.022223 0.033259 0.115000 -0.634392 0.773011 0.000000 0.546506 0.918901
-0.022223 0.033259 -0.115000 -0.634392 0.773011 0.000000 0.547841 0.093733
-0.022223 0.033259 -0.115000 -0.471396 0.881922 0.000000 0.547841 0.093733
-0.022223 0.033259 0.115000 -0.471396 0.881922 0.000000 0.546506 0.918901
-0.015307 0.036955 0.115000 -0.471396 0.881922 0.000000 0.525780 0.918788
-0.015307 0.036955 -0.115000 -0.471396 0.881922 0.000000 0.529089 0.093619
0.015307 0.036955 0.115000 0.000000 0.000000 1.000000 0.000000 0.000000
0.007804 0.039231 0.115000 0.000000 0.000000 1.000000 0.000000 0.000000
0.000000 0.040000 0.115000 0.000000 0.000000 1.000000 0.000000 0.000000
-0.007804 0.039231 0.115000 0.000000 0.000000 1.000000 0.000000 0.000000
-0.015307 0.036955 0.115000 0.000000 0.000000 1.000000 0.000000 0.000000
-0.022223 0.033259 0.115000 0.000000 0.000000 1.000000 0.000000 0.000000
-0.028284 0.028284 0.115000 0.000000 0.000000 1.000000 0.000000 0.000000
-0.033259 0.022223 0.115000 0.000000 0.000000 1.000000 0.000000 0.000000
-0.036955 0.015307 0.115000 0.000000 0.000000 1.000000 0.000000 0.000000
-0.039231 0.007804 0.115000 0.000000 0.000000 1.000000 0.000000 0.000000
-0.040000 0.000000 0.115000 0.000000 0.000000 1.000000 0.000000 0.000000
-0.039231 -0.007804 0.115000 0.000000 0.000000 1.000000 0.000000 0.000000
-0.036955 -0.015307 0.115000 0.000000 0.000000 1.000000 0.000000 0.000000
-0.033259 -0.022223 0.115000 0.000000 0.000000 1.000000 0.000000 0.000000
-0.028284 -0.028284 0.115000 0.000000 0.000000 1.000000 0.000000 0.000000
-0.022223 -0.033259 0.115000 0.000000 0.000000 1.000000 0.000000 0.000000
-0.015307 -0.036955 0.115000 0.000000 0.000000 1.000000 0.000000 0.000000
-0.007804 -0.039231 0.115000 0.000000 0.000000 1.000000 0.000000 0.000000
-0.000000 -0.040000 0.115000 0.000000 0.000000 1.000000 0.000000 0.000000
0.007804 -0.039231 0.115000 0.000000 0.000000 1.000000 0.000000 0.000000
0.015307 -0.036955 0.115000 0.000000 0.000000 1.000000 0.000000 0.000000
0.022223 -0.033259 0.115000 0.000000 0.000000 1.000000 0.000000 0.000000
0.028284 -0.028284 0.115000 0.000000 0.000000 1.000000 0.000000 0.000000
0.033259 -0.022223 0.115000 0.000000 0.000000 1.000000 0.000000 0.000000
0.036955 -0.015307 0.115000 0.000000 0.000000 1.000000 0.000000 0.000000
0.039231 -0.007804 0.115000 0.000000 0.000000 1.000000 0.000000 0.000000
0.040000 0.000000 0.115000 0.000000 0.000000 1.000000 0.000000 0.000000
0.039231 0.007804 0.115000 0.000000 0.000000 1.000000 0.000000 0.000000
0.036955 0.015307 0.115000 0.000000 0.000000 1.000000 0.000000 0.000000
0.033259 0.022223 0.115000 0.000000 0.000000 1.000000 0.000000 0.000000
0.028284 0.028284 0.115000 0.000000 0.000000 1.000000 0.000000 0.000000
0.022223 0.033259 0.115000 0.000000 0.000000 1.000000 0.000000 0.000000
0.000000 0.040000 0.115000 -0.098017 0.995185 0.000000 0.484602 0.918288
0.000000 0.040000 -0.115000 -0.098017 0.995185 0.000000 0.491401 0.093119
-0.007804 0.039231 -0.115000 -0.098017 0.995185 0.000000 0.510286 0.093412
-0.007804 0.039231 0.115000 -0.098017 0.995185 0.000000 0.505131 0.918581
-0.015307 0.036955 -0.115000 -0.290283 0.956941 0.000000 0.529089 0.093619
-0.015307 0.036955 0.115000 -0.290283 0.956941 0.000000 0.525780 0.918788
-0.007804 0.039231 0.115000 -0.290283 0.956941 0.000000 0.505131 0.918581
-0.007804 0.039231 -0.115000 -0.290283 0.956941 0.000000 0.510286 0.093412
-0.007804 0.039231 -0.115000 -0.000000 0.000000 -1.000000 0.000000 0.000000
0.000000 0.040000 -0.115000 -0.000000 0.000000 -1.000000 0.000000 0.000000
0.007804 0.039231 -0.115000 -0.000000 0.000000 -1.000000 0.000000 0.000000
0.015307 0.036955 -0.115000 0.000000 0.000000 -1.000000 0.000000 0.000000
0.022223 0.033259 -0.115000 0.000000 0.000000 -1.000000 0.000000 0.000000
0.028284 0.028284 -0.115000 0.000000 0.000000 -1.000000 0.000000 0.000000
0.033259 0.022223 -0.115000 0.000000 0.000000 -1.000000 0.000000 0.000000
0.036955 0.015307 -0.115000 0.000000 0.000000 -1.000000 0.000000 0.000000
0.039231 0.007804 -0.115000 0.000000 0.000000 -1.000000 0.000000 0.000000
0.040000 0.000000 -0.115000 0.000000 0.000000 -1.000000 0.000000 0.000000
0.039231 -0.007804 -0.115000 0.000000 0.000000 -1.000000 0.000000 0.000000
0.036955 -0.015307 -0.115000 0.000000 0.000000 -1.000000 0.000000 0.000000
0.033259 -0.022223 -0.115000 0.000000 0.000000 -1.000000 0.000000 0.000000
0.028284 -0.028284 -0.115000 0.000000 0.000000 -1.000000 0.000000 0.000000
0.022223 -0.033259 -0.115000 0.000000 0.000000 -1.000000 0.000000 0.000000
0.015307 -0.036955 -0.115000 0.000000 0.000000 -1.000000 0.000000 0.000000
0.007804 -0.039231 -0.115000 0.000000 0.000000 -1.000000 0.000000 0.000000
-0.000000 -0.040000 -0.115000 0.000000 0.000000 -1.000000 0.000000 0.000000
-0.007804 -0.039231 -0.115000 0.000000 0.000000 -1.000000 0.000000 0.000000
-0.015307 -0.036955 -0.115000 0.000000 0.000000 -1.000000 0.000000 0.000000
-0.022223 -0.033259 -0.115000 0.000000 0.000000 -1.000000 0.000000 0.000000
-0.028284 -0.028284 -0.115000 0.000000 0.000000 -1.000000 0.000000 0.000000
-0.033259 -0.022223 -0.115000 0.000000 0.000000 -1.000000 0.000000 0.000000
-0.036955 -0.015307 -0.115000 0.000000 0.000000 -1.000000 0.000000 0.000000
-0.039231 -0.007804 -0.115000 0.000000 0.000000 -1.000000 0.000000 0.000000
-0.040000 0.000000 -0.115000 0.000000 -0.000000 -1.000000 0.000000 0.000000
-0.039231 0.007804 -0.115000 0.000000 -0.000000 -1.000000 0.000000 0.000000
-0.036955 0.015307 -0.115000 0.000000 0.000000 -1.000000 0.000000 0.000000
-0.033259 0.022223 -0.115000 0.000000 0.000000 -1.000000 0.000000 0.000000
-0.028284 0.028284 -0.115000 0.000000 0.000000 -1.000000 0.000000 0.000000
-0.022223 0.033259 -0.115000 0.000000 0.000000 -1.000000 0.000000 0.000000
-0.015307 0.036955 -0.115000 0.000000 0.000000 -1.000000 0.000000 0.000000
4 0 1 2 3
4 4 5 6 7
4 8 9 10 11
4 12 13 14 15
4 16 17 18 19
4 20 21 22 23
4 24 25 26 27
4 28 29 30 31
4 32 33 34 35
4 36 37 38 39
4 40 41 42 43
4 44 45 46 47
4 48 49 50 51
4 52 53 54 55
4 56 57 58 59
4 60 61 62 63
4 64 65 66 67
4 68 69 70 71
4 72 73 74 75
4 76 77 78 79
4 80 81 82 83
4 84 85 86 87
4 88 89 90 91
4 92 93 94 95
4 96 97 98 99
4 100 101 102 103
4 104 105 106 107
4 108 109 110 111
4 112 113 114 115
4 116 117 118 119
3 120 121 122
3 122 123 124
3 124 125 126
3 126 127 128
3 128 129 130
3 130 131 132
3 132 133 134
3 134 135 136
3 136 137 138
3 138 139 140
3 140 141 142
3 142 143 144
3 144 145 146
3 146 147 148
3 148 149 150
3 150 151 120
3 120 122 124
3 124 126 128
3 128 130 132
3 132 134 136
3 136 138 140
3 140 142 144
3 144 146 148
3 148 150 120
3 120 124 128
3 128 132 136
3 136 140 144
3 144 148 120
3 120 128 136
3 136 144 120
4 152 153 154 155
4 156 157 158 159
3 160 161 162
3 162 163 164
3 164 165 166
3 166 167 168
3 168 169 170
3 170 171 172
3 172 173 174
3 174 175 176
3 176 177 178
3 178 179 180
3 180 181 182
3 182 183 184
3 184 185 186
3 186 187 188
3 188 189 190
3 190 191 160
3 160 162 164
3 164 166 168
3 168 170 172
3 172 174 176
3 176 178 180
3 180 182 184
3 184 186 188
3 188 190 160
3 160 164 168
3 168 172 176
3 176 180 184
3 184 188 160
3 160 168 176
3 176 184 160
