# Blender v2.76 (sub 0) OBJ File: ''
# www.blender.org
mtllib pringles.mtl
o Cylinder
v 0.000000 -0.115000 -0.040000
v 0.000000 0.115000 -0.040000
v 0.007804 -0.115000 -0.039231
v 0.007804 0.115000 -0.039231
v 0.015307 -0.115000 -0.036955
v 0.015307 0.115000 -0.036955
v 0.022223 -0.115000 -0.033259
v 0.022223 0.115000 -0.033259
v 0.028284 -0.115000 -0.028284
v 0.028284 0.115000 -0.028284
v 0.033259 -0.115000 -0.022223
v 0.033259 0.115000 -0.022223
v 0.036955 -0.115000 -0.015307
v 0.036955 0.115000 -0.015307
v 0.039231 -0.115000 -0.007804
v 0.039231 0.115000 -0.007804
v 0.040000 -0.115000 -0.000000
v 0.040000 0.115000 -0.000000
v 0.039231 -0.115000 0.007804
v 0.039231 0.115000 0.007804
v 0.036955 -0.115000 0.015307
v 0.036955 0.115000 0.015307
v 0.033259 -0.115000 0.022223
v 0.033259 0.115000 0.022223
v 0.028284 -0.115000 0.028284
v 0.028284 0.115000 0.028284
v 0.022223 -0.115000 0.033259
v 0.022223 0.115000 0.033259
v 0.015307 -0.115000 0.036955
v 0.015307 0.115000 0.036955
v 0.007804 -0.115000 0.039231
v 0.007804 0.115000 0.039231
v -0.000000 -0.115000 0.040000
v -0.000000 0.115000 0.040000
v -0.007804 -0.115000 0.039231
v -0.007804 0.115000 0.039231
v -0.015307 -0.115000 0.036955
v -0.015307 0.115000 0.036955
v -0.022223 -0.115000 0.033259
v -0.022223 0.115000 0.033259
v -0.028284 -0.115000 0.028284
v -0.028284 0.115000 0.028284
v -0.033259 -0.115000 0.022223
v -0.033259 0.115000 0.022223
v -0.036955 -0.115000 0.015307
v -0.036955 0.115000 0.015307
v -0.039231 -0.115000 0.007804
v -0.039231 0.115000 0.007804
v -0.040000 -0.115000 -0.000000
v -0.040000 0.115000 -0.000000
v -0.039231 -0.115000 -0.007804
v -0.039231 0.115000 -0.007804
v -0.036955 -0.115000 -0.015307
v -0.036955 0.115000 -0.015307
v -0.033259 -0.115000 -0.022223
v -0.033259 0.115000 -0.022223
v -0.028284 -0.115000 -0.028284
v -0.028284 0.115000 -0.028284
v -0.022223 -0.115000 -0.033259
v -0.022223 0.115000 -0.033259
v -0.015307 -0.115000 -0.036955
v -0.015307 0.115000 -0.036955
v -0.007804 -0.115000 -0.039231
v -0.007804 0.115000 -0.039231
vt 0.491401 0.093119
vt 0.484602 0.918288
vt 0.464226 0.917922
vt 0.472405 0.092752
vt 0.444028 0.917494
vt 0.453272 0.092325
vt 0.424024 0.917023
vt 0.433978 0.091854
vt 0.404221 0.916527
vt 0.414505 0.091358
vt 0.384618 0.916023
vt 0.394839 0.090855
vt 0.365204 0.915533
vt 0.374972 0.090364
vt 0.345963 0.915075
vt 0.354906 0.089906
vt 0.326877 0.914665
vt 0.334649 0.089496
vt 0.307919 0.914320
vt 0.314221 0.089151
vt 0.289063 0.914054
vt 0.293650 0.088885
vt 0.270279 0.913876
vt 0.272972 0.088706
vt 0.251537 0.913793
vt 0.252230 0.088624
vt 0.232806 0.913809
vt 0.231472 0.088640
vt 0.214055 0.913922
vt 0.210745 0.088753
vt 0.195251 0.914129
vt 0.190097 0.088960
vt 0.820166 0.088960
vt 0.825320 0.914129
vt 0.806435 0.914422
vt 0.799636 0.089253
vt 0.787439 0.914789
vt 0.779260 0.089620
vt 0.768306 0.915216
vt 0.759062 0.090046
vt 0.749013 0.915687
vt 0.739059 0.090517
vt 0.729540 0.916183
vt 0.719256 0.091014
vt 0.709874 0.916687
vt 0.699652 0.091517
vt 0.690007 0.917177
vt 0.680238 0.092008
vt 0.669940 0.917636
vt 0.660998 0.092466
vt 0.649684 0.918046
vt 0.641911 0.092876
vt 0.629256 0.918390
vt 0.622953 0.093221
vt 0.608684 0.918657
vt 0.604097 0.093487
vt 0.588006 0.918835
vt 0.585314 0.093665
vt 0.567264 0.918917
vt 0.566572 0.093748
vt 0.546506 0.918901
vt 0.547841 0.093733
vt 0.525780 0.918788
vt 0.529089 0.093619
vt 0.510286 0.093412
vt 0.505131 0.918581
vt 0.000000 0.000000
vn 0.098000 0.000000 -0.995200
vn 0.290300 0.000000 -0.956900
vn 0.471400 0.000000 -0.881900
vn 0.634400 0.000000 -0.773000
vn 0.773000 0.000000 -0.634400
vn 0.881900 0.000000 -0.471400
vn 0.956900 0.000000 -0.290300
vn 0.995200 0.000000 -0.098000
vn 0.995200 0.000000 0.098000
vn 0.956900 0.000000 0.290300
vn 0.881900 0.000000 0.471400
vn 0.773000 0.000000 0.634400
vn 0.634400 0.000000 0.773000
vn 0.471400 0.000000 0.881900
vn 0.290300 0.000000 0.956900
vn 0.098000 0.000000 0.995200
vn -0.098000 0.000000 0.995200
vn -0.290300 0.000000 0.956900
vn -0.471400 0.000000 0.881900
vn -0.634400 0.000000 0.773000
vn -0.773000 0.000000 0.634400
vn -0.881900 0.000000 0.471400
vn -0.956900 0.000000 0.290300
vn -0.995200 0.000000 0.098000
vn -0.995200 0.000000 -0.098000
vn -0.956900 0.000000 -0.290300
vn -0.881900 0.000000 -0.471400
vn -0.773000 0.000000 -0.634400
vn -0.634400 0.000000 -0.773000
vn -0.471400 0.000000 -0.881900
vn -0.098000 0.000000 -0.995200
vn -0.290300 0.000000 -0.956900
vn 0.000000 1.000000 -0.000000
vn 0.000000 -1.000000 0.000000
usemtl None
s off
f 1/1/1 2/2/1 4/3/1 3/4/1
f 3/4/2 4/3/2 6/5/2 5/6/2
f 5/6/3 6/5/3 8/7/3 7/8/3
f 7/8/4 8/7/4 10/9/4 9/10/4
f 9/10/5 10/9/5 12/11/5 11/12/5
f 11/12/6 12/11/6 14/13/6 13/14/6
f 13/14/7 14/13/7 16/15/7 15/16/7
f 15/16/8 16/15/8 18/17/8 17/18/8
f 17/18/9 18/17/9 20/19/9 19/20/9
f 19/20/10 20/19/10 22/21/10 21/22/10
f 21/22/11 22/21/11 24/23/11 23/24/11
f 23/24/12 24/23/12 26/25/12 25/26/12
f 25/26/13 26/25/13 28/27/13 27/28/13
f 27/28/14 28/27/14 30/29/14 29/30/14
f 29/30/15 30/29/15 32/31/15 31/32/15
f 31/33/16 32/34/16 34/35/16 33/36/16
f 33/36/17 34/35/17 36/37/17 35/38/17
f 35/38/18 36/37/18 38/39/18 37/40/18
f 37/40/19 38/39/19 40/41/19 39/42/19
f 39/42/20 40/41/20 42/43/20 41/44/20
f 41/44/21 42/43/21 44/45/21 43/46/21
f 43/46/22 44/45/22 46/47/22 45/48/22
f 45/48/23 46/47/23 48/49/23 47/50/23
f 47/50/24 48/49/24 50/51/24 49/52/24
f 49/52/25 50/51/25 52/53/25 51/54/25
f 51/54/26 52/53/26 54/55/26 53/56/26
f 53/56/27 54/55/27 56/57/27 55/58/27
f 55/58/28 56/57/28 58/59/28 57/60/28
f 57/60/29 58/59/29 60/61/29 59/62/29
f 59/62/30 60/61/30 62/63/30 61/64/30
f 63/65/31 64/66/31 2/2/31 1/1/31
f 61/64/32 62/63/32 64/66/32 63/65/32
usemtl None_NONE
f 4/67/33 2/67/33 64/67/33 62/67/33 60/67/33 58/67/33 56/67/33 54/67/33 52/67/33 50/67/33 48/67/33 46/67/33 44/67/33 42/67/33 40/67/33 38/67/33 36/67/33 34/67/33 32/67/33 30/67/33 28/67/33 26/67/33 24/67/33 22/67/33 20/67/33 18/67/33 16/67/33 14/67/33 12/67/33 10/67/33 8/67/33 6/67/33
f 1/67/34 3/67/34 5/67/34 7/67/34 9/67/34 11/67/34 13/67/34 15/67/34 17/67/34 19/67/34 21/67/34 23/67/34 25/67/34 27/67/34 29/67/34 31/67/34 33/67/34 35/67/34 37/67/34 39/67/34 41/67/34 43/67/34 45/67/34 47/67/34 49/67/34 51/67/34 53/67/34 55/67/34 57/67/34 59/67/34 61/67/34 63/67/34
